<svg id="visual" viewBox="0 0 900 600" width="900" height="600" xmlns="http://www.w3.org/2000/svg" xmlns:xlink="http://www.w3.org/1999/xlink" version="1.1"><path d="M0 79L21.5 82C43 85 86 91 128.8 93C171.7 95 214.3 93 257.2 91C300 89 343 87 385.8 91C428.7 95 471.3 105 514.2 100C557 95 600 75 642.8 76C685.7 77 728.3 99 771.2 110C814 121 857 121 878.5 121L900 121L900 0L878.5 0C857 0 814 0 771.2 0C728.3 0 685.7 0 642.8 0C600 0 557 0 514.2 0C471.3 0 428.7 0 385.8 0C343 0 300 0 257.2 0C214.3 0 171.7 0 128.8 0C86 0 43 0 21.5 0L0 0Z" fill="#1f2b3b"></path><path d="M0 169L21.5 182C43 195 86 221 128.8 226C171.7 231 214.3 215 257.2 214C300 213 343 227 385.8 226C428.7 225 471.3 209 514.2 217C557 225 600 257 642.8 272C685.7 287 728.3 285 771.2 280C814 275 857 267 878.5 263L900 259L900 119L878.5 119C857 119 814 119 771.2 108C728.3 97 685.7 75 642.8 74C600 73 557 93 514.2 98C471.3 103 428.7 93 385.8 89C343 85 300 87 257.2 89C214.3 91 171.7 93 128.8 91C86 89 43 83 21.5 80L0 77Z" fill="#283951"></path><path d="M0 253L21.5 261C43 269 86 285 128.8 286C171.7 287 214.3 273 257.2 277C300 281 343 303 385.8 300C428.7 297 471.3 269 514.2 272C557 275 600 309 642.8 327C685.7 345 728.3 347 771.2 341C814 335 857 321 878.5 314L900 307L900 257L878.5 261C857 265 814 273 771.2 278C728.3 283 685.7 285 642.8 270C600 255 557 223 514.2 215C471.3 207 428.7 223 385.8 224C343 225 300 211 257.2 212C214.3 213 171.7 229 128.8 224C86 219 43 193 21.5 180L0 167Z" fill="#4a5d77"></path><path d="M0 469L21.5 471C43 473 86 477 128.8 474C171.7 471 214.3 461 257.2 458C300 455 343 459 385.8 452C428.7 445 471.3 427 514.2 427C557 427 600 445 642.8 448C685.7 451 728.3 439 771.2 443C814 447 857 467 878.5 477L900 487L900 305L878.5 312C857 319 814 333 771.2 339C728.3 345 685.7 343 642.8 325C600 307 557 273 514.2 270C471.3 267 428.7 295 385.8 298C343 301 300 279 257.2 275C214.3 271 171.7 285 128.8 284C86 283 43 267 21.5 259L0 251Z" fill="#4a5d77"></path><path d="M0 565L21.5 558C43 551 86 537 128.8 529C171.7 521 214.3 519 257.2 524C300 529 343 541 385.8 539C428.7 537 471.3 521 514.2 515C557 509 600 513 642.8 515C685.7 517 728.3 517 771.2 525C814 533 857 549 878.5 557L900 565L900 485L878.5 475C857 465 814 445 771.2 441C728.3 437 685.7 449 642.8 446C600 443 557 425 514.2 425C471.3 425 428.7 443 385.8 450C343 457 300 453 257.2 456C214.3 459 171.7 469 128.8 472C86 475 43 471 21.5 469L0 467Z" fill="#283951"></path><path d="M0 601L21.5 601C43 601 86 601 128.8 601C171.7 601 214.3 601 257.2 601C300 601 343 601 385.8 601C428.7 601 471.3 601 514.2 601C557 601 600 601 642.8 601C685.7 601 728.3 601 771.2 601C814 601 857 601 878.5 601L900 601L900 563L878.5 555C857 547 814 531 771.2 523C728.3 515 685.7 515 642.8 513C600 511 557 507 514.2 513C471.3 519 428.7 535 385.8 537C343 539 300 527 257.2 522C214.3 517 171.7 519 128.8 527C86 535 43 549 21.5 556L0 563Z" fill="#1f2b3b"></path></svg>