<svg id="visual" viewBox="0 0 900 600" width="900" height="600" xmlns="http://www.w3.org/2000/svg" xmlns:xlink="http://www.w3.org/1999/xlink" version="1.1"><rect x="0" y="0" width="900" height="600" fill="#4F8BA6"></rect><path d="M0 118L9.3 122.7C18.7 127.3 37.3 136.7 56.2 135C75 133.3 94 120.7 112.8 122.5C131.7 124.3 150.3 140.7 169 149.2C187.7 157.7 206.3 158.3 225 155.2C243.7 152 262.3 145 281.2 138.7C300 132.3 319 126.7 337.8 120.8C356.7 115 375.3 109 394 107.2C412.7 105.3 431.3 107.7 450 111.5C468.7 115.3 487.3 120.7 506.2 124.7C525 128.7 544 131.3 562.8 126.5C581.7 121.7 600.3 109.3 619 111.5C637.7 113.7 656.3 130.3 675 138.3C693.7 146.3 712.3 145.7 731.2 141C750 136.3 769 127.7 787.8 125.7C806.7 123.7 825.3 128.3 844 128.7C862.7 129 881.3 125 890.7 123L900 121L900 0L890.7 0C881.3 0 862.7 0 844 0C825.3 0 806.7 0 787.8 0C769 0 750 0 731.2 0C712.3 0 693.7 0 675 0C656.3 0 637.7 0 619 0C600.3 0 581.7 0 562.8 0C544 0 525 0 506.2 0C487.3 0 468.7 0 450 0C431.3 0 412.7 0 394 0C375.3 0 356.7 0 337.8 0C319 0 300 0 281.2 0C262.3 0 243.7 0 225 0C206.3 0 187.7 0 169 0C150.3 0 131.7 0 112.8 0C94 0 75 0 56.2 0C37.3 0 18.7 0 9.3 0L0 0Z" fill="#4f8ba6"></path><path d="M0 128L9.3 130.7C18.7 133.3 37.3 138.7 56.2 136.7C75 134.7 94 125.3 112.8 125C131.7 124.7 150.3 133.3 169 132.8C187.7 132.3 206.3 122.7 225 113.7C243.7 104.7 262.3 96.3 281.2 101.8C300 107.3 319 126.7 337.8 131.8C356.7 137 375.3 128 394 124C412.7 120 431.3 121 450 118.8C468.7 116.7 487.3 111.3 506.2 105.8C525 100.3 544 94.7 562.8 96.7C581.7 98.7 600.3 108.3 619 117.3C637.7 126.3 656.3 134.7 675 129.5C693.7 124.3 712.3 105.7 731.2 99.7C750 93.7 769 100.3 787.8 109C806.7 117.7 825.3 128.3 844 135.3C862.7 142.3 881.3 145.7 890.7 147.3L900 149L900 0L890.7 0C881.3 0 862.7 0 844 0C825.3 0 806.7 0 787.8 0C769 0 750 0 731.2 0C712.3 0 693.7 0 675 0C656.3 0 637.7 0 619 0C600.3 0 581.7 0 562.8 0C544 0 525 0 506.2 0C487.3 0 468.7 0 450 0C431.3 0 412.7 0 394 0C375.3 0 356.7 0 337.8 0C319 0 300 0 281.2 0C262.3 0 243.7 0 225 0C206.3 0 187.7 0 169 0C150.3 0 131.7 0 112.8 0C94 0 75 0 56.2 0C37.3 0 18.7 0 9.3 0L0 0Z" fill="#5594ae"></path><path d="M0 77L9.3 83.7C18.7 90.3 37.3 103.7 56.2 111.2C75 118.7 94 120.3 112.8 114.7C131.7 109 150.3 96 169 88.5C187.7 81 206.3 79 225 84.3C243.7 89.7 262.3 102.3 281.2 102.2C300 102 319 89 337.8 90.3C356.7 91.7 375.3 107.3 394 106C412.7 104.7 431.3 86.3 450 84C468.7 81.7 487.3 95.3 506.2 102.7C525 110 544 111 562.8 108.2C581.7 105.3 600.3 98.7 619 97.2C637.7 95.7 656.3 99.3 675 105.5C693.7 111.7 712.3 120.3 731.2 125C750 129.7 769 130.3 787.8 123.3C806.7 116.3 825.3 101.7 844 96C862.7 90.3 881.3 93.7 890.7 95.3L900 97L900 0L890.7 0C881.3 0 862.7 0 844 0C825.3 0 806.7 0 787.8 0C769 0 750 0 731.2 0C712.3 0 693.7 0 675 0C656.3 0 637.7 0 619 0C600.3 0 581.7 0 562.8 0C544 0 525 0 506.2 0C487.3 0 468.7 0 450 0C431.3 0 412.7 0 394 0C375.3 0 356.7 0 337.8 0C319 0 300 0 281.2 0C262.3 0 243.7 0 225 0C206.3 0 187.7 0 169 0C150.3 0 131.7 0 112.8 0C94 0 75 0 56.2 0C37.3 0 18.7 0 9.3 0L0 0Z" fill="#5b9db6"></path><path d="M0 83L9.3 85.5C18.7 88 37.3 93 56.2 90.5C75 88 94 78 112.8 78.7C131.7 79.3 150.3 90.7 169 90C187.7 89.3 206.3 76.7 225 69.2C243.7 61.7 262.3 59.3 281.2 58.8C300 58.3 319 59.7 337.8 67.5C356.7 75.3 375.3 89.7 394 89.2C412.7 88.7 431.3 73.3 450 66.2C468.7 59 487.3 60 506.2 63.5C525 67 544 73 562.8 73.5C581.7 74 600.3 69 619 72.8C637.7 76.7 656.3 89.3 675 91C693.7 92.7 712.3 83.3 731.2 76.5C750 69.7 769 65.3 787.8 69C806.7 72.7 825.3 84.3 844 84.2C862.7 84 881.3 72 890.7 66L900 60L900 0L890.7 0C881.3 0 862.7 0 844 0C825.3 0 806.7 0 787.8 0C769 0 750 0 731.2 0C712.3 0 693.7 0 675 0C656.3 0 637.7 0 619 0C600.3 0 581.7 0 562.8 0C544 0 525 0 506.2 0C487.3 0 468.7 0 450 0C431.3 0 412.7 0 394 0C375.3 0 356.7 0 337.8 0C319 0 300 0 281.2 0C262.3 0 243.7 0 225 0C206.3 0 187.7 0 169 0C150.3 0 131.7 0 112.8 0C94 0 75 0 56.2 0C37.3 0 18.7 0 9.3 0L0 0Z" fill="#62a6be"></path><path d="M0 68L9.3 72C18.7 76 37.3 84 56.2 85.7C75 87.3 94 82.7 112.8 78.5C131.7 74.3 150.3 70.7 169 73C187.7 75.3 206.3 83.7 225 87.2C243.7 90.7 262.3 89.3 281.2 81.3C300 73.3 319 58.7 337.8 55.7C356.7 52.7 375.3 61.3 394 62.8C412.7 64.3 431.3 58.7 450 59.7C468.7 60.7 487.3 68.3 506.2 72.3C525 76.3 544 76.7 562.8 78.8C581.7 81 600.3 85 619 86.2C637.7 87.3 656.3 85.7 675 80.2C693.7 74.7 712.3 65.3 731.2 63.7C750 62 769 68 787.8 66C806.7 64 825.3 54 844 50C862.7 46 881.3 48 890.7 49L900 50L900 0L890.7 0C881.3 0 862.7 0 844 0C825.3 0 806.7 0 787.8 0C769 0 750 0 731.2 0C712.3 0 693.7 0 675 0C656.3 0 637.7 0 619 0C600.3 0 581.7 0 562.8 0C544 0 525 0 506.2 0C487.3 0 468.7 0 450 0C431.3 0 412.7 0 394 0C375.3 0 356.7 0 337.8 0C319 0 300 0 281.2 0C262.3 0 243.7 0 225 0C206.3 0 187.7 0 169 0C150.3 0 131.7 0 112.8 0C94 0 75 0 56.2 0C37.3 0 18.7 0 9.3 0L0 0Z" fill="#68aec6"></path><path d="M0 65L9.3 61C18.7 57 37.3 49 56.2 44.8C75 40.7 94 40.3 112.8 40.3C131.7 40.3 150.3 40.7 169 39.3C187.7 38 206.3 35 225 36.5C243.7 38 262.3 44 281.2 47.5C300 51 319 52 337.8 51.3C356.7 50.7 375.3 48.3 394 50.8C412.7 53.3 431.3 60.7 450 59.7C468.7 58.7 487.3 49.3 506.2 45C525 40.7 544 41.3 562.8 40.3C581.7 39.3 600.3 36.7 619 36C637.7 35.3 656.3 36.7 675 37.2C693.7 37.7 712.3 37.3 731.2 36.8C750 36.3 769 35.7 787.8 35C806.7 34.3 825.3 33.7 844 38C862.7 42.3 881.3 51.7 890.7 56.3L900 61L900 0L890.7 0C881.3 0 862.7 0 844 0C825.3 0 806.7 0 787.8 0C769 0 750 0 731.2 0C712.3 0 693.7 0 675 0C656.3 0 637.7 0 619 0C600.3 0 581.7 0 562.8 0C544 0 525 0 506.2 0C487.3 0 468.7 0 450 0C431.3 0 412.7 0 394 0C375.3 0 356.7 0 337.8 0C319 0 300 0 281.2 0C262.3 0 243.7 0 225 0C206.3 0 187.7 0 169 0C150.3 0 131.7 0 112.8 0C94 0 75 0 56.2 0C37.3 0 18.7 0 9.3 0L0 0Z" fill="#6fb7ce"></path><path d="M0 29L9.3 31.2C18.7 33.3 37.3 37.7 56.2 35.5C75 33.3 94 24.7 112.8 20.8C131.7 17 150.3 18 169 21.7C187.7 25.3 206.3 31.7 225 33.8C243.7 36 262.3 34 281.2 35.5C300 37 319 42 337.8 43.2C356.7 44.3 375.3 41.7 394 38.7C412.7 35.7 431.3 32.3 450 28.7C468.7 25 487.3 21 506.2 20C525 19 544 21 562.8 26.8C581.7 32.7 600.3 42.3 619 45C637.7 47.7 656.3 43.3 675 41.7C693.7 40 712.3 41 731.2 37.7C750 34.3 769 26.7 787.8 23.5C806.7 20.3 825.3 21.7 844 25C862.7 28.3 881.3 33.7 890.7 36.3L900 39L900 0L890.7 0C881.3 0 862.7 0 844 0C825.3 0 806.7 0 787.8 0C769 0 750 0 731.2 0C712.3 0 693.7 0 675 0C656.3 0 637.7 0 619 0C600.3 0 581.7 0 562.8 0C544 0 525 0 506.2 0C487.3 0 468.7 0 450 0C431.3 0 412.7 0 394 0C375.3 0 356.7 0 337.8 0C319 0 300 0 281.2 0C262.3 0 243.7 0 225 0C206.3 0 187.7 0 169 0C150.3 0 131.7 0 112.8 0C94 0 75 0 56.2 0C37.3 0 18.7 0 9.3 0L0 0Z" fill="#76c0d5"></path><path d="M0 19L9.3 19.5C18.7 20 37.3 21 56.2 22.7C75 24.3 94 26.7 112.8 28C131.7 29.3 150.3 29.7 169 30.2C187.7 30.7 206.3 31.3 225 27.2C243.7 23 262.3 14 281.2 10.8C300 7.7 319 10.3 337.8 10.8C356.7 11.3 375.3 9.7 394 13.2C412.7 16.7 431.3 25.3 450 26.5C468.7 27.7 487.3 21.3 506.2 18.2C525 15 544 15 562.8 17.7C581.7 20.3 600.3 25.7 619 24.5C637.7 23.3 656.3 15.7 675 12.2C693.7 8.7 712.3 9.3 731.2 12C750 14.7 769 19.3 787.8 21.3C806.7 23.3 825.3 22.7 844 22.8C862.7 23 881.3 24 890.7 24.5L900 25L900 0L890.7 0C881.3 0 862.7 0 844 0C825.3 0 806.7 0 787.8 0C769 0 750 0 731.2 0C712.3 0 693.7 0 675 0C656.3 0 637.7 0 619 0C600.3 0 581.7 0 562.8 0C544 0 525 0 506.2 0C487.3 0 468.7 0 450 0C431.3 0 412.7 0 394 0C375.3 0 356.7 0 337.8 0C319 0 300 0 281.2 0C262.3 0 243.7 0 225 0C206.3 0 187.7 0 169 0C150.3 0 131.7 0 112.8 0C94 0 75 0 56.2 0C37.3 0 18.7 0 9.3 0L0 0Z" fill="#7dc9dd"></path></svg>