<svg id="visual" viewBox="0 0 900 600" width="900" height="600" xmlns="http://www.w3.org/2000/svg" xmlns:xlink="http://www.w3.org/1999/xlink" version="1.1"><rect x="0" y="0" width="900" height="600" fill="#7DC9DD"></rect><path d="M0 158L13.7 156.7C27.3 155.3 54.7 152.7 82 153.8C109.3 155 136.7 160 163.8 159.7C191 159.3 218 153.7 245.2 151C272.3 148.3 299.7 148.7 327 147.8C354.3 147 381.7 145 409 148.5C436.3 152 463.7 161 491 160.8C518.3 160.7 545.7 151.3 573 151.5C600.3 151.7 627.7 161.3 654.8 158.2C682 155 709 139 736.2 137.7C763.3 136.3 790.7 149.7 818 156.3C845.3 163 872.7 163 886.3 163L900 163L900 0L886.3 0C872.7 0 845.3 0 818 0C790.7 0 763.3 0 736.2 0C709 0 682 0 654.8 0C627.7 0 600.3 0 573 0C545.7 0 518.3 0 491 0C463.7 0 436.3 0 409 0C381.7 0 354.3 0 327 0C299.7 0 272.3 0 245.2 0C218 0 191 0 163.8 0C136.7 0 109.3 0 82 0C54.7 0 27.3 0 13.7 0L0 0Z" fill="#4a5d77"></path><path d="M0 115L13.7 115.7C27.3 116.3 54.7 117.7 82 119.7C109.3 121.7 136.7 124.3 163.8 127C191 129.7 218 132.3 245.2 135.7C272.3 139 299.7 143 327 139C354.3 135 381.7 123 409 120C436.3 117 463.7 123 491 124.2C518.3 125.3 545.7 121.7 573 123.3C600.3 125 627.7 132 654.8 133C682 134 709 129 736.2 123.5C763.3 118 790.7 112 818 108.2C845.3 104.3 872.7 102.7 886.3 101.8L900 101L900 0L886.3 0C872.7 0 845.3 0 818 0C790.7 0 763.3 0 736.2 0C709 0 682 0 654.8 0C627.7 0 600.3 0 573 0C545.7 0 518.3 0 491 0C463.7 0 436.3 0 409 0C381.7 0 354.3 0 327 0C299.7 0 272.3 0 245.2 0C218 0 191 0 163.8 0C136.7 0 109.3 0 82 0C54.7 0 27.3 0 13.7 0L0 0Z" fill="#3c4e68"></path><path d="M0 82L13.7 86.3C27.3 90.7 54.7 99.3 82 100.8C109.3 102.3 136.7 96.7 163.8 92.5C191 88.3 218 85.7 245.2 89.3C272.3 93 299.7 103 327 107.7C354.3 112.3 381.7 111.7 409 108.8C436.3 106 463.7 101 491 96.2C518.3 91.3 545.7 86.7 573 84.2C600.3 81.7 627.7 81.3 654.8 85C682 88.7 709 96.3 736.2 102.8C763.3 109.3 790.7 114.7 818 112.3C845.3 110 872.7 100 886.3 95L900 90L900 0L886.3 0C872.7 0 845.3 0 818 0C790.7 0 763.3 0 736.2 0C709 0 682 0 654.8 0C627.7 0 600.3 0 573 0C545.7 0 518.3 0 491 0C463.7 0 436.3 0 409 0C381.7 0 354.3 0 327 0C299.7 0 272.3 0 245.2 0C218 0 191 0 163.8 0C136.7 0 109.3 0 82 0C54.7 0 27.3 0 13.7 0L0 0Z" fill="#2f4058"></path><path d="M0 69L13.7 72.3C27.3 75.7 54.7 82.3 82 82.2C109.3 82 136.7 75 163.8 74.5C191 74 218 80 245.2 78.8C272.3 77.7 299.7 69.3 327 69.3C354.3 69.3 381.7 77.7 409 80.7C436.3 83.7 463.7 81.3 491 80.5C518.3 79.7 545.7 80.3 573 80.5C600.3 80.7 627.7 80.3 654.8 82.3C682 84.3 709 88.7 736.2 89.3C763.3 90 790.7 87 818 85.8C845.3 84.7 872.7 85.3 886.3 85.7L900 86L900 0L886.3 0C872.7 0 845.3 0 818 0C790.7 0 763.3 0 736.2 0C709 0 682 0 654.8 0C627.7 0 600.3 0 573 0C545.7 0 518.3 0 491 0C463.7 0 436.3 0 409 0C381.7 0 354.3 0 327 0C299.7 0 272.3 0 245.2 0C218 0 191 0 163.8 0C136.7 0 109.3 0 82 0C54.7 0 27.3 0 13.7 0L0 0Z" fill="#26364d"></path><path d="M0 42L13.7 42.8C27.3 43.7 54.7 45.3 82 49.3C109.3 53.3 136.7 59.7 163.8 59.2C191 58.7 218 51.3 245.2 48.7C272.3 46 299.7 48 327 48.3C354.3 48.7 381.7 47.3 409 47C436.3 46.7 463.7 47.3 491 47C518.3 46.7 545.7 45.3 573 47.5C600.3 49.7 627.7 55.3 654.8 56.2C682 57 709 53 736.2 52.3C763.3 51.7 790.7 54.3 818 54C845.3 53.7 872.7 50.3 886.3 48.7L900 47L900 0L886.3 0C872.7 0 845.3 0 818 0C790.7 0 763.3 0 736.2 0C709 0 682 0 654.8 0C627.7 0 600.3 0 573 0C545.7 0 518.3 0 491 0C463.7 0 436.3 0 409 0C381.7 0 354.3 0 327 0C299.7 0 272.3 0 245.2 0C218 0 191 0 163.8 0C136.7 0 109.3 0 82 0C54.7 0 27.3 0 13.7 0L0 0Z" fill="#223144"></path><path d="M0 26L13.7 28.2C27.3 30.3 54.7 34.7 82 37.2C109.3 39.7 136.7 40.3 163.8 37.8C191 35.3 218 29.7 245.2 28.7C272.3 27.7 299.7 31.3 327 33.8C354.3 36.3 381.7 37.7 409 38.3C436.3 39 463.7 39 491 39.2C518.3 39.3 545.7 39.7 573 38C600.3 36.3 627.7 32.7 654.8 33.2C682 33.7 709 38.3 736.2 38.8C763.3 39.3 790.7 35.7 818 32.8C845.3 30 872.7 28 886.3 27L900 26L900 0L886.3 0C872.7 0 845.3 0 818 0C790.7 0 763.3 0 736.2 0C709 0 682 0 654.8 0C627.7 0 600.3 0 573 0C545.7 0 518.3 0 491 0C463.7 0 436.3 0 409 0C381.7 0 354.3 0 327 0C299.7 0 272.3 0 245.2 0C218 0 191 0 163.8 0C136.7 0 109.3 0 82 0C54.7 0 27.3 0 13.7 0L0 0Z" fill="#1f2b3b"></path></svg>