<svg id="visual" viewBox="0 0 900 600" width="900" height="600" xmlns="http://www.w3.org/2000/svg" xmlns:xlink="http://www.w3.org/1999/xlink" version="1.1"><path d="M0 103L21.5 109C43 115 86 127 128.8 133C171.7 139 214.3 139 257.2 125C300 111 343 83 385.8 72C428.7 61 471.3 67 514.2 87C557 107 600 141 642.8 150C685.7 159 728.3 143 771.2 137C814 131 857 135 878.5 137L900 139L900 0L878.5 0C857 0 814 0 771.2 0C728.3 0 685.7 0 642.8 0C600 0 557 0 514.2 0C471.3 0 428.7 0 385.8 0C343 0 300 0 257.2 0C214.3 0 171.7 0 128.8 0C86 0 43 0 21.5 0L0 0Z" fill="#4a5d77"></path><path d="M0 169L21.5 175C43 181 86 193 128.8 200C171.7 207 214.3 209 257.2 194C300 179 343 147 385.8 130C428.7 113 471.3 111 514.2 126C557 141 600 173 642.8 183C685.7 193 728.3 181 771.2 181C814 181 857 193 878.5 199L900 205L900 137L878.5 135C857 133 814 129 771.2 135C728.3 141 685.7 157 642.8 148C600 139 557 105 514.2 85C471.3 65 428.7 59 385.8 70C343 81 300 109 257.2 123C214.3 137 171.7 137 128.8 131C86 125 43 113 21.5 107L0 101Z" fill="#3c4e68"></path><path d="M0 355L21.5 355C43 355 86 355 128.8 355C171.7 355 214.3 355 257.2 357C300 359 343 363 385.8 351C428.7 339 471.3 311 514.2 312C557 313 600 343 642.8 346C685.7 349 728.3 325 771.2 311C814 297 857 293 878.5 291L900 289L900 203L878.5 197C857 191 814 179 771.2 179C728.3 179 685.7 191 642.8 181C600 171 557 139 514.2 124C471.3 109 428.7 111 385.8 128C343 145 300 177 257.2 192C214.3 207 171.7 205 128.8 198C86 191 43 179 21.5 173L0 167Z" fill="#2f4058"></path><path d="M0 487L21.5 486C43 485 86 483 128.8 479C171.7 475 214.3 469 257.2 466C300 463 343 463 385.8 461C428.7 459 471.3 455 514.2 466C557 477 600 503 642.8 507C685.7 511 728.3 493 771.2 491C814 489 857 503 878.5 510L900 517L900 287L878.5 289C857 291 814 295 771.2 309C728.3 323 685.7 347 642.8 344C600 341 557 311 514.2 310C471.3 309 428.7 337 385.8 349C343 361 300 357 257.2 355C214.3 353 171.7 353 128.8 353C86 353 43 353 21.5 353L0 353Z" fill="#26364d"></path><path d="M0 535L21.5 538C43 541 86 547 128.8 545C171.7 543 214.3 533 257.2 531C300 529 343 535 385.8 537C428.7 539 471.3 537 514.2 540C557 543 600 551 642.8 551C685.7 551 728.3 543 771.2 543C814 543 857 551 878.5 555L900 559L900 515L878.5 508C857 501 814 487 771.2 489C728.3 491 685.7 509 642.8 505C600 501 557 475 514.2 464C471.3 453 428.7 457 385.8 459C343 461 300 461 257.2 464C214.3 467 171.7 473 128.8 477C86 481 43 483 21.5 484L0 485Z" fill="#223144"></path><path d="M0 601L21.5 601C43 601 86 601 128.8 601C171.7 601 214.3 601 257.2 601C300 601 343 601 385.8 601C428.7 601 471.3 601 514.2 601C557 601 600 601 642.8 601C685.7 601 728.3 601 771.2 601C814 601 857 601 878.5 601L900 601L900 557L878.5 553C857 549 814 541 771.2 541C728.3 541 685.7 549 642.8 549C600 549 557 541 514.2 538C471.3 535 428.7 537 385.8 535C343 533 300 527 257.2 529C214.3 531 171.7 541 128.8 543C86 545 43 539 21.5 536L0 533Z" fill="#1f2b3b"></path></svg>